<?xml version="1.0" encoding="UTF-8"?>
<svg id="Layer_2" data-name="Layer 2" xmlns="http://www.w3.org/2000/svg" viewBox="0 0 5000 1527.81">
  <g id="Layer_1-2" data-name="Layer 1">
    <g>
      <g>
        <path d="M733.38,223.37c0-120.16,0-141.73-1.54-166.37-1.54-26.19-7.7-38.51-33.12-43.9-6.16-1.54-19.26-2.31-26.19-2.31-3.08,0-6.16-1.54-6.16-4.62,0-4.62,3.85-6.16,12.32-6.16,34.66,0,80.88,2.31,87.04,2.31,16.95,0,61.62-2.31,97.05-2.31,96.28,0,130.94,32.35,143.26,43.9,16.95,16.18,38.51,50.84,38.51,91.66,0,109.37-80.11,183.32-189.48,183.32-3.85,0-12.32,0-16.17-.77-3.85,0-8.47-1.54-8.47-5.39,0-6.16,4.62-6.93,20.79-6.93,74.72,0,133.25-54.69,133.25-125.55,0-25.42-2.31-77.02-43.13-118.62-40.82-41.59-87.81-38.51-105.52-38.51-13.09,0-26.19,1.54-33.12,4.62-4.62,1.54-6.16,6.93-6.16,14.63V358.94c0,73.94,0,134.79,3.85,167.15,2.31,22.34,6.93,39.28,30.04,42.36,10.78,1.54,27.73,3.08,34.66,3.08,4.62,0,6.16,2.31,6.16,4.62,0,3.85-3.85,6.16-12.33,6.16-42.36,0-90.89-2.31-94.74-2.31-2.31,0-50.84,2.31-73.94,2.31-8.47,0-12.33-1.54-12.33-6.16,0-2.31,1.54-4.62,6.16-4.62,6.93,0,16.18-1.54,23.11-3.08,15.41-3.08,19.26-20.03,22.34-42.36,3.85-32.35,3.85-93.2,3.85-167.15V223.37Z"/>
        <path d="M1197.82,276.52c0-101.67,0-120.16-1.54-140.95-1.54-22.34-5.39-33.12-27.73-36.2-5.39-.77-16.95-1.54-23.11-1.54-2.31,0-5.39-3.08-5.39-5.39,0-3.85,3.08-5.39,10.78-5.39,30.81,0,76.25,1.54,80.11,1.54,6.93,0,63.93-1.54,84.73-1.54,43.13,0,90.89,3.85,126.32,28.5,16.95,12.33,46.99,43.9,46.99,89.35,0,48.53-20.03,95.51-83.19,149.43,55.46,69.32,102.44,128.63,141.72,169.45,36.2,36.97,58.54,43.13,75.48,45.44,13.09,2.31,20.03,2.31,23.88,2.31s6.16,3.08,6.16,5.39c0,3.85-3.85,5.39-16.17,5.39h-42.37c-38.51,0-55.46-3.85-72.4-13.09-29.27-15.4-53.92-46.98-92.43-96.28-28.5-35.43-58.54-77.8-73.17-95.51-3.08-3.08-4.62-3.85-9.24-3.85l-86.27-1.54c-3.08,0-4.62,1.54-4.62,5.39v15.4c0,63.16,0,114,3.08,140.96,2.31,19.26,6.16,31.58,26.96,34.66,9.24,1.54,23.88,3.08,30.04,3.08,4.62,0,5.39,3.08,5.39,5.39,0,3.08-3.08,5.39-10.78,5.39-36.97,0-80.11-2.31-83.19-2.31-.77,0-46.22,2.31-67.01,2.31-6.93,0-10.78-1.54-10.78-5.39,0-2.31,1.54-5.39,5.39-5.39,6.16,0,14.63-1.54,20.8-3.08,13.09-3.08,14.63-15.4,17.71-34.66,3.85-26.96,3.85-78.57,3.85-141.73v-115.54Zm58.54,55.46c0,3.85,1.54,6.16,4.62,8.47,10.01,5.39,44.68,10.01,74.72,10.01,16.17,0,34.66-.77,50.83-11.55,23.11-15.4,40.82-50.07,40.82-100.13,0-81.65-44.68-128.63-117.08-128.63-20.03,0-41.59,2.31-48.52,3.85-3.08,1.54-5.39,3.85-5.39,7.7v210.28Z"/>
        <path d="M1715.4,276.52c0-101.67,0-120.16-1.54-140.95-1.54-22.34-5.39-33.12-27.73-36.2-5.39-.77-16.95-1.54-23.11-1.54-2.31,0-5.39-3.08-5.39-5.39,0-3.85,3.08-5.39,10.78-5.39,30.81,0,74.72,1.54,78.57,1.54,4.62,0,146.35,.77,161.75,0,13.09-.77,25.42-3.08,30.81-3.85,3.08-.77,6.16-3.08,9.24-3.08,2.31,0,3.08,3.08,3.08,6.16,0,4.62-3.85,12.33-5.39,30.81-.77,6.16-2.31,35.43-3.85,43.13-.77,3.08-3.08,6.93-6.16,6.93-3.85,0-5.39-3.08-5.39-8.47,0-4.62-.77-15.41-3.85-23.11-4.62-10.78-11.55-15.4-48.53-20.03-11.55-1.54-90.12-2.31-97.82-2.31-3.08,0-3.85,2.31-3.85,6.93v177.93c0,4.62,0,6.93,3.85,6.93,8.47,0,97.82,0,113.22-1.54,16.18-1.54,26.19-2.31,33.12-9.24,4.62-4.62,7.7-8.47,10.01-8.47s3.85,1.54,3.85,5.39-3.85,14.64-5.39,36.2c-1.54,13.09-3.08,37.74-3.08,42.36,0,5.39-1.54,12.32-6.16,12.32-3.08,0-4.62-2.31-4.62-6.16,0-6.16,0-13.09-3.08-21.57-2.31-9.24-8.47-16.95-34.66-20.03-18.49-2.31-90.89-3.08-102.44-3.08-3.85,0-4.62,2.31-4.62,4.62v54.69c0,22.34-.77,98.59,0,111.69,1.54,43.9,13.87,52.38,80.88,52.38,17.71,0,50.07,0,67.78-6.93,17.71-7.7,26.96-19.26,30.81-45.44,1.54-7.7,3.08-10.01,6.93-10.01s4.62,5.39,4.62,10.01-5.39,49.3-9.24,63.16c-4.62,16.95-11.55,16.95-37.74,16.95-50.83,0-90.12-1.54-117.85-2.31-28.5-1.54-46.21-1.54-56.23-1.54-1.54,0-14.64,0-29.27,.77-13.09,.77-28.5,1.54-39.28,1.54-6.93,0-10.78-1.54-10.78-5.39,0-2.31,1.54-5.39,5.39-5.39,6.16,0,14.63-2.31,20.8-3.08,13.09-2.31,14.63-15.4,17.71-34.66,3.85-26.96,3.85-78.57,3.85-141.73v-115.54Z"/>
        <path d="M2082.79,573.06c-9.24-4.62-10.01-6.93-10.01-24.65,0-32.35,3.08-58.54,3.85-69.32,0-6.93,1.54-10.78,5.39-10.78s6.16,2.31,6.16,7.7,0,14.64,2.31,23.88c10.78,47.75,61.62,64.7,107.06,64.7,67.01,0,101.67-37.74,101.67-87.04s-25.42-69.32-85.5-114l-30.81-23.11c-73.17-54.69-97.05-94.74-97.05-140.19,0-77.03,60.85-123.24,150.2-123.24,26.96,0,53.92,3.85,70.09,7.7,13.09,3.08,18.48,3.08,23.88,3.08s6.93,.77,6.93,4.62c0,3.08-3.08,24.65-3.08,69.32,0,10.01-.77,14.64-5.39,14.64s-5.39-3.08-6.16-8.47c-.77-7.7-6.16-25.42-10.01-32.35-4.62-7.7-26.96-32.35-87.81-32.35-49.3,0-90.12,24.65-90.12,70.86,0,41.59,20.8,65.47,87.81,110.91l19.26,13.09c82.42,56.23,110.91,101.67,110.91,157.9,0,38.51-14.64,80.11-63.16,111.69-28.5,18.48-70.86,23.11-107.84,23.11-31.58,0-70.86-4.62-98.59-17.72Z"/>
        <path d="M2691.25,392.06c0,63.16,0,114.77,3.08,141.73,2.31,19.26,5.39,31.58,26.19,34.66,9.24,1.54,24.65,3.08,30.81,3.08,4.62,0,5.39,3.08,5.39,5.39,0,3.08-3.08,5.39-10.78,5.39-36.97,0-80.11-2.31-83.96-2.31-3.08,0-50.06,2.31-70.09,2.31-7.71,0-10.78-1.54-10.78-5.39,0-2.31,1.54-4.62,5.39-4.62,6.16,0,13.86-1.54,20.03-3.08,13.86-3.08,17.71-16.17,20.03-35.43,3.08-26.96,3.08-78.57,3.08-141.73V117.08l-97.82,1.54c-42.36,.77-58.54,5.39-68.55,20.8-7.7,11.55-8.47,16.17-10.78,20.8-1.54,5.39-3.85,6.16-6.93,6.16-1.54,0-4.62-1.54-4.62-5.39,0-6.93,13.09-65.47,14.64-70.86,.77-3.85,4.62-12.33,6.93-12.33,4.62,0,11.55,5.39,30.04,7.7,19.26,2.31,45.44,3.08,53.15,3.08h255.72c22.34,0,37.74-1.54,48.53-3.08,10.01-1.54,16.18-3.08,19.25-3.08s3.08,3.85,3.08,7.7c0,20.03-2.31,67.01-2.31,74.71,0,5.39-3.08,8.47-6.16,8.47s-4.62-2.31-5.39-11.56l-.77-6.93c-2.31-20.03-16.94-34.66-81.65-36.2l-84.73-1.54V392.06Z"/>
        <path d="M3074.8,392.06c0,63.16,0,114.77,3.08,141.73,2.31,19.26,4.63,31.58,24.65,34.66,10.01,1.54,24.65,3.08,30.81,3.08,3.85,0,5.39,3.08,5.39,5.39,0,3.08-3.08,5.39-10.78,5.39-37.74,0-81.65-2.31-84.73-2.31-3.85,0-46.21,2.31-67.01,2.31-6.93,0-10.78-1.54-10.78-5.39,0-2.31,1.54-5.39,5.39-5.39,6.16,0,14.63-1.54,20.8-3.08,13.09-3.08,15.4-15.4,17.72-34.66,3.08-26.96,3.85-78.57,3.85-141.73v-115.54c0-101.67,0-120.16-1.54-140.95-1.54-22.34-6.93-32.35-21.56-35.43-7.7-1.54-16.18-2.31-20.8-2.31-3.08,0-5.39-3.08-5.39-5.39,0-3.85,3.08-5.39,10.78-5.39,22.34,0,64.7,1.54,68.55,1.54,3.08,0,46.99-1.54,67.78-1.54,7.71,0,10.78,1.54,10.78,5.39,0,2.31-3.08,5.39-5.39,5.39-4.62,0-9.24,0-16.95,1.54-18.48,3.85-22.33,13.09-23.87,36.2-.77,20.8-.77,39.28-.77,140.95v115.54Z"/>
        <path d="M3620.9,415.16c0-53.15-1.54-60.85-29.27-66.24-5.39-.77-16.94-1.54-23.11-1.54-2.31,0-5.39-3.08-5.39-5.39,0-4.62,3.08-5.39,10.78-5.39,30.81,0,76.26,1.54,80.11,1.54,3.08,0,45.45-1.54,66.24-1.54,7.7,0,10.78,.77,10.78,5.39,0,2.31-3.08,5.39-5.39,5.39-4.63,0-9.25,0-16.95,1.54-18.49,3.08-23.88,13.09-25.42,36.2-.77,20.8-.77,40.05-.77,67.78v73.17c0,30.04-.77,30.81-9.24,35.43-43.13,22.34-104.76,29.27-144.04,29.27-51.61,0-147.88-6.16-223.37-70.09-41.59-34.66-80.87-104.76-80.87-186.4,0-104.75,53.14-178.7,113.22-214.9,60.85-36.97,128.63-41.59,180.24-41.59,43.14,0,90.89,7.7,103.98,10.78,13.87,3.08,37.74,6.93,54.69,6.93,6.94,0,8.47,3.08,8.47,6.16,0,9.24-3.85,26.96-3.85,92.43,0,10.78-3.08,13.87-7.7,13.87-3.85,0-4.63-3.85-4.63-10.01-.77-8.47-4.62-27.73-15.4-43.13-16.94-24.65-68.55-50.84-156.36-50.84-40.82,0-90.11,3.08-141.72,42.36-39.28,30.04-67.01,88.58-67.01,164.83,0,92.43,47.75,158.67,71.64,181.01,53.91,50.07,110.91,68.55,173.3,68.55,23.88,0,55.46-2.31,73.17-12.33,8.47-4.62,13.87-7.7,13.87-20.03v-113.23Z"/>
        <path d="M3886.6,276.52c0-101.67,0-120.16-1.54-140.95-1.54-22.34-5.39-33.12-27.73-36.2-5.39-.77-16.94-1.54-23.11-1.54-2.31,0-5.39-3.08-5.39-5.39,0-3.85,3.08-5.39,10.78-5.39,30.81,0,74.71,1.54,78.57,1.54,4.62,0,146.34,.77,161.75,0,13.09-.77,25.42-3.08,30.81-3.85,3.08-.77,6.16-3.08,9.24-3.08,2.31,0,3.08,3.08,3.08,6.16,0,4.62-3.85,12.33-5.39,30.81-.77,6.16-2.31,35.43-3.85,43.13-.77,3.08-3.08,6.93-6.16,6.93-3.85,0-5.39-3.08-5.39-8.47,0-4.62-.77-15.41-3.85-23.11-4.62-10.78-11.55-15.4-48.52-20.03-11.56-1.54-90.12-2.31-97.82-2.31-3.08,0-3.85,2.31-3.85,6.93v177.93c0,4.62,0,6.93,3.85,6.93,8.47,0,97.82,0,113.22-1.54,16.18-1.54,26.19-2.31,33.12-9.24,4.63-4.62,7.7-8.47,10.01-8.47s3.85,1.54,3.85,5.39-3.85,14.64-5.39,36.2c-1.54,13.09-3.08,37.74-3.08,42.36,0,5.39-1.54,12.32-6.16,12.32-3.08,0-4.63-2.31-4.63-6.16,0-6.16,0-13.09-3.08-21.57-2.31-9.24-8.47-16.95-34.66-20.03-18.49-2.31-90.89-3.08-102.45-3.08-3.85,0-4.62,2.31-4.62,4.62v54.69c0,22.34-.77,98.59,0,111.69,1.54,43.9,13.87,52.38,80.88,52.38,17.71,0,50.07,0,67.78-6.93,17.71-7.7,26.96-19.26,30.81-45.44,1.54-7.7,3.08-10.01,6.93-10.01s4.63,5.39,4.63,10.01-5.39,49.3-9.25,63.16c-4.62,16.95-11.55,16.95-37.74,16.95-50.84,0-90.12-1.54-117.85-2.31-28.5-1.54-46.21-1.54-56.23-1.54-1.54,0-14.64,0-29.27,.77-13.09,.77-28.5,1.54-39.28,1.54-6.93,0-10.78-1.54-10.78-5.39,0-2.31,1.54-5.39,5.39-5.39,6.16,0,14.64-2.31,20.8-3.08,13.09-2.31,14.64-15.4,17.71-34.66,3.85-26.96,3.85-78.57,3.85-141.73v-115.54Z"/>
      </g>
      <g>
        <path d="M93.99,1012.5c0-168.53,0-198.78-2.16-233.35-2.16-36.73-10.8-54.01-46.45-61.58-8.64-2.16-27.01-3.24-36.73-3.24-4.32,0-8.64-2.16-8.64-6.48,0-6.48,5.4-8.64,17.29-8.64,24.85,0,54.02,0,77.78,1.08l44.29,1.08c21.61,0,240.91,1.08,265.76,0,20.53-1.08,37.81-1.08,47.53-4.32,6.48-2.16,10.8-6.48,15.13-6.48s6.48,4.32,6.48,9.72c0,7.56-5.4,20.53-8.64,50.78-1.08,10.8-3.24,58.34-5.4,71.3-1.08,5.4-3.24,11.88-8.64,11.88s-7.56-5.4-7.56-12.96c0-8.64-3.24-27.01-9.72-41.05-6.48-14.04-31.33-33.49-73.46-34.57l-166.37-3.24c-6.48,0-9.72,3.24-9.72,11.88v298.17c0,6.48,1.08,9.72,7.56,9.72l138.28-1.08c18.36,0,33.49,0,48.61-1.08,25.93-2.16,39.97-5.4,49.69-19.44,4.32-5.4,7.56-10.8,11.88-10.8s5.4,3.24,5.4,8.64c0,6.48-5.4,24.85-8.64,60.5-2.16,21.61-4.32,64.82-4.32,72.38,0,9.72,0,20.52-7.56,20.52-5.4,0-7.56-4.32-7.56-9.72-1.08-10.8-2.16-25.93-6.48-38.89-5.4-15.13-22.69-34.57-56.18-38.89-27.01-3.24-144.76-3.24-163.13-3.24-5.4,0-7.56,2.16-7.56,9.72v91.83c0,103.71,0,189.06,5.4,234.43,3.24,31.33,9.72,55.09,42.13,59.42,15.12,2.16,38.89,4.32,48.61,4.32,6.48,0,8.64,3.24,8.64,6.48,0,5.4-5.4,8.64-17.29,8.64-59.42,0-127.48-3.24-132.88-3.24s-73.46,3.24-105.87,3.24c-11.88,0-17.29-2.16-17.29-8.64,0-3.24,2.16-6.48,8.64-6.48,9.72,0,22.69-2.16,32.41-4.32,21.61-4.32,27.01-28.09,31.33-59.42,5.4-45.37,5.4-130.72,5.4-234.43v-190.14Z"/>
        <path d="M795.1,1251.25c0,135.04,2.16,190.14,19.45,206.34,15.12,15.13,51.86,21.61,126.4,21.61,49.69,0,91.83-1.08,114.51-28.09,11.88-14.04,19.44-33.49,22.68-51.86,1.08-6.48,4.32-11.88,9.72-11.88,4.32,0,6.48,4.32,6.48,14.05s-6.48,64.82-14.04,91.83c-6.48,21.6-9.72,24.85-60.5,24.85-68.06,0-121-1.08-165.29-3.24-43.21-1.08-75.62-2.16-103.71-2.16-4.32,0-20.53,0-38.89,1.08-19.44,1.08-39.97,2.16-55.1,2.16-9.72,0-15.12-2.16-15.12-7.57,0-3.24,2.16-7.56,7.56-7.56,8.64,0,20.53-2.16,29.17-4.32,18.36-4.32,20.53-21.61,24.85-48.61,5.4-37.81,5.4-110.19,5.4-198.78v-162.05c0-142.6,0-168.53-2.16-197.7-2.16-31.33-7.56-46.45-38.89-50.78-7.56-1.08-23.77-2.16-32.41-2.16-3.24,0-7.56-4.32-7.56-7.56,0-5.4,4.32-7.56,15.12-7.56,43.21,0,102.63,2.16,108.03,2.16,4.32,0,75.62-2.16,104.79-2.16,9.72,0,15.12,2.16,15.12,7.56,0,3.24-4.32,6.48-7.56,6.48-6.48,0-20.53,1.08-31.33,2.16-28.09,5.4-33.49,19.44-35.65,51.86-1.08,29.17-1.08,55.1-1.08,197.7v164.21Z"/>
        <path d="M1531.87,808.32c213.9,0,375.95,130.72,375.95,344.62s-152.33,374.87-381.35,374.87c-260.36,0-371.63-195.54-371.63-360.83,0-148,114.51-358.66,377.03-358.66Zm21.61,681.68c85.35,0,257.11-45.37,257.11-311.13,0-220.38-133.96-335.98-284.12-335.98-158.81,0-273.32,99.39-273.32,299.25,0,213.9,128.56,347.86,300.33,347.86Z"/>
        <path d="M2721.29,1379.81h4.32c23.77-75.62,109.11-341.38,142.6-459.14,9.72-34.57,10.8-45.37,10.8-57.25,0-16.21-7.56-27.01-50.78-27.01-5.4,0-8.64-5.4-8.64-8.64,0-4.32,4.32-6.48,16.21-6.48,48.61,0,88.58,2.16,97.23,2.16,6.48,0,47.53-2.16,76.7-2.16,8.64,0,12.96,2.16,12.96,5.4,0,4.32-2.16,9.72-8.64,9.72-3.24,0-21.6,1.08-32.41,4.32-28.09,9.72-43.22,46.45-61.58,97.23-42.13,116.67-136.12,408.36-173.93,510.99-24.85,68.06-30.25,78.86-41.05,78.86-9.72,0-18.37-11.88-31.33-47.54l-185.81-503.43c-32.41,79.94-160.97,417-195.54,502.35-16.2,38.89-22.69,48.62-33.49,48.62-9.72,0-17.29-9.72-36.73-72.38l-168.53-544.48c-15.13-48.61-24.85-60.5-49.7-69.14-12.96-4.32-36.73-5.4-43.21-5.4-4.32,0-8.64-3.24-8.64-8.64,0-4.32,6.48-6.48,15.13-6.48,49.69,0,102.63,2.16,112.35,2.16,8.64,0,51.86-2.16,99.39-2.16,12.97,0,17.29,2.16,17.29,6.48,0,5.4-5.4,8.64-9.72,8.64-7.56,0-22.69,0-33.49,5.4-6.48,2.16-12.96,7.56-12.96,19.45s7.56,44.29,18.36,85.35c15.12,58.34,112.35,395.39,124.24,433.21h2.16l198.78-514.23c14.04-36.73,20.53-42.13,25.93-42.13,6.48,0,14.04,11.88,25.93,43.21l185.81,513.15Z"/>
        <path d="M3176.08,1087.04c0-142.6,0-168.53-2.16-197.7-2.16-31.33-7.57-46.45-38.89-50.78-7.56-1.08-23.77-2.16-32.41-2.16-3.24,0-7.56-4.32-7.56-7.56,0-5.4,4.32-7.56,15.13-7.56,43.21,0,104.79,2.16,110.19,2.16,6.48,0,205.26,1.08,226.86,0,18.36-1.08,35.65-4.32,43.22-5.4,4.32-1.08,8.64-4.32,12.96-4.32,3.24,0,4.32,4.32,4.32,8.64,0,6.48-5.4,17.29-7.57,43.21-1.08,8.64-3.24,49.7-5.4,60.5-1.08,4.32-4.32,9.72-8.64,9.72-5.4,0-7.56-4.32-7.56-11.88,0-6.48-1.08-21.61-5.4-32.41-6.48-15.12-16.21-21.61-68.06-28.09-16.21-2.16-126.4-3.24-137.2-3.24-4.32,0-5.4,3.24-5.4,9.72v249.55c0,6.48,0,9.72,5.4,9.72,11.88,0,137.2,0,158.81-2.16,22.68-2.16,36.73-3.24,46.45-12.96,6.48-6.48,10.8-11.88,14.04-11.88s5.4,2.16,5.4,7.56-5.4,20.53-7.56,50.78c-2.16,18.36-4.32,52.93-4.32,59.42,0,7.56-2.16,17.29-8.64,17.29-4.32,0-6.48-3.24-6.48-8.64,0-8.64,0-18.36-4.32-30.25-3.24-12.96-11.89-23.77-48.62-28.08-25.93-3.24-127.48-4.32-143.68-4.32-5.4,0-6.48,3.24-6.48,6.48v76.7c0,31.33-1.08,138.28,0,156.65,2.16,61.58,19.44,73.46,113.43,73.46,24.85,0,70.22,0,95.07-9.72,24.85-10.8,37.81-27,43.22-63.74,2.16-10.8,4.32-14.04,9.72-14.04s6.48,7.56,6.48,14.04-7.57,69.14-12.97,88.59c-6.48,23.77-16.2,23.77-52.93,23.77-71.3,0-126.4-2.16-165.29-3.24-39.97-2.16-64.82-2.16-78.86-2.16-2.16,0-20.53,0-41.05,1.08-18.37,1.08-39.97,2.16-55.1,2.16-9.72,0-15.13-2.16-15.13-7.57,0-3.24,2.16-7.56,7.57-7.56,8.64,0,20.52-3.24,29.17-4.32,18.36-3.24,20.52-21.61,24.85-48.61,5.4-37.81,5.4-110.19,5.4-198.78v-162.05Z"/>
        <path d="M3771.31,1087.04c0-142.6,0-168.53-2.16-197.7-2.16-31.33-7.57-46.45-38.89-50.78-7.56-1.08-23.77-2.16-32.41-2.16-3.24,0-7.56-4.32-7.56-7.56,0-5.4,4.32-7.56,15.13-7.56,43.21,0,106.95,2.16,112.35,2.16,9.72,0,89.67-2.16,118.84-2.16,60.5,0,127.48,5.4,177.17,39.97,23.77,17.29,65.9,61.58,65.9,125.32,0,68.06-28.09,133.96-116.67,209.58,77.78,97.23,143.68,180.41,198.78,237.67,50.78,51.86,82.1,60.5,105.87,63.74,18.36,3.24,28.08,3.24,33.49,3.24s8.64,4.32,8.64,7.56c0,5.4-5.4,7.57-22.69,7.57h-59.42c-54.02,0-77.79-5.4-101.55-18.37-41.05-21.6-75.62-65.9-129.64-135.04-39.97-49.7-82.1-109.11-102.63-133.96-4.32-4.32-6.48-5.4-12.97-5.4l-121-2.16c-4.32,0-6.48,2.16-6.48,7.57v21.6c0,88.59,0,159.89,4.32,197.7,3.24,27,8.64,44.29,37.81,48.61,12.96,2.16,33.49,4.32,42.13,4.32,6.48,0,7.56,4.32,7.56,7.56,0,4.32-4.32,7.57-15.12,7.57-51.86,0-112.36-3.24-116.68-3.24-1.08,0-64.82,3.24-93.99,3.24-9.72,0-15.13-2.16-15.13-7.57,0-3.24,2.16-7.56,7.57-7.56,8.64,0,20.52-2.16,29.17-4.32,18.36-4.32,20.52-21.61,24.85-48.61,5.4-37.81,5.4-110.19,5.4-198.78v-162.05Zm82.1,77.79c0,5.4,2.16,8.64,6.48,11.88,14.05,7.56,62.66,14.04,104.79,14.04,22.69,0,48.61-1.08,71.3-16.21,32.41-21.6,57.26-70.22,57.26-140.44,0-114.51-62.66-180.41-164.21-180.41-28.08,0-58.34,3.24-68.06,5.4-4.32,2.16-7.57,5.4-7.57,10.8v294.93Z"/>
        <path d="M4407.62,1502.96c-12.96-6.48-14.04-9.72-14.04-34.57,0-45.37,4.32-82.1,5.4-97.23,0-9.72,2.16-15.12,7.56-15.12s8.64,3.24,8.64,10.8,0,20.52,3.24,33.49c15.13,66.98,86.43,90.75,150.16,90.75,93.99,0,142.6-52.93,142.6-122.07s-35.65-97.23-119.92-159.89l-43.21-32.41c-102.63-76.71-136.12-132.88-136.12-196.62,0-108.03,85.35-172.85,210.66-172.85,37.81,0,75.63,5.4,98.31,10.8,18.36,4.32,25.93,4.32,33.49,4.32s9.72,1.08,9.72,6.48c0,4.32-4.32,34.57-4.32,97.23,0,14.04-1.08,20.53-7.56,20.53s-7.56-4.32-8.64-11.89c-1.08-10.8-8.64-35.64-14.05-45.37-6.48-10.8-37.81-45.37-123.15-45.37-69.14,0-126.4,34.57-126.4,99.39,0,58.34,29.17,91.83,123.15,155.57l27.01,18.36c115.59,78.86,155.57,142.6,155.57,221.47,0,54.01-20.53,112.35-88.59,156.65-39.97,25.93-99.39,32.41-151.24,32.41-44.29,0-99.39-6.48-138.28-24.85Z"/>
      </g>
      <g>
        <path d="M4858.84,802.81c0,9.84,0,17.89,.48,22.09,.36,3,.84,4.92,4.08,5.4,1.44,.24,3.84,.48,4.8,.48,.72,0,.84,.48,.84,.84,0,.48-.48,.84-1.68,.84-5.76,0-12.48-.36-13.08-.36-.48,0-7.8,.36-10.93,.36-1.2,0-1.68-.24-1.68-.84,0-.36,.24-.72,.84-.72,.96,0,2.16-.24,3.12-.48,2.16-.48,2.76-2.52,3.12-5.52,.48-4.2,.48-12.24,.48-22.09v-42.86l-15.24,.24c-6.6,.12-9.12,.84-10.69,3.24-1.2,1.8-1.32,2.52-1.68,3.24-.24,.84-.6,.96-1.08,.96-.24,0-.72-.24-.72-.84,0-1.08,2.04-10.2,2.28-11.04,.12-.6,.72-1.92,1.08-1.92,.72,0,1.8,.84,4.68,1.2,3,.36,7.09,.48,8.28,.48h39.85c3.48,0,5.89-.24,7.57-.48,1.56-.24,2.52-.48,3-.48s.48,.6,.48,1.2c0,3.12-.36,10.44-.36,11.64,0,.84-.48,1.32-.96,1.32s-.72-.36-.84-1.8l-.12-1.08c-.36-3.12-2.64-5.4-12.72-5.64l-13.2-.24v42.86Z"/>
        <path d="M4986.92,819.37c.36,3.6,1.08,9.12,5.4,10.56,3,.96,5.76,.96,6.84,.96,.48,0,.84,.24,.84,.72,0,.6-.96,.96-2.16,.96-2.4,0-14.16-.12-18.01-.48-2.52-.24-3-.6-3-1.08,0-.36,.24-.72,.72-.84,.6-.12,.72-1.68,.48-3.6l-5.04-51.86h-.24l-25.45,52.1c-2.16,4.44-2.76,5.4-3.72,5.4s-1.56-.96-3.6-4.68c-2.76-5.04-9.72-18.13-12.37-23.65-3.12-6.48-11.64-23.65-13.45-27.85h-.48l-4.08,46.1c-.12,1.56-.12,3.48-.12,5.16,0,1.56,.96,2.52,2.52,2.88,1.8,.48,3.36,.6,4.08,.6,.36,0,.84,.36,.84,.72,0,.72-.72,.96-1.92,.96-3.96,0-9-.36-9.84-.36-.96,0-6,.36-8.88,.36-1.08,0-1.8-.24-1.8-.96,0-.36,.48-.72,1.08-.72,.84,0,1.56-.12,3.12-.36,3.48-.6,3.6-4.32,4.08-8.16l7.68-66.62c.12-1.08,.6-1.8,1.2-1.8,.72,0,1.56,.36,2.16,1.56l31.93,63.38,30.73-63.26c.48-.96,.96-1.68,1.68-1.68s1.32,.84,1.56,2.76l7.2,62.78Z"/>
      </g>
    </g>
  </g>
</svg>